<?xml version="1.0" standalone="no"?>
<!DOCTYPE svg PUBLIC "-//W3C//DTD SVG 20010904//EN"
 "http://www.w3.org/TR/2001/REC-SVG-20010904/DTD/svg10.dtd">
<svg version="1.0" xmlns="http://www.w3.org/2000/svg"
 width="1024.000000pt" height="1024.000000pt" viewBox="0 0 1024.000000 1024.000000"
 preserveAspectRatio="xMidYMid meet">

<g transform="translate(0.000000,1024.000000) scale(0.100000,-0.100000)"
fill="#000000" stroke="none">
<path d="M4819 7623 c-1031 -570 -1574 -871 -1629 -902 -36 -21 -174 -98 -308
-172 l-242 -134 2 -1424 3 -1424 330 -181 c182 -100 481 -265 665 -366 184
-101 445 -244 580 -318 135 -74 373 -204 530 -290 157 -85 293 -160 302 -166
20 -12 -9 -27 518 262 195 108 483 266 640 352 157 85 509 279 783 430 l497
275 0 1421 0 1421 -382 213 c-211 118 -570 318 -798 446 -969 541 -1187 662
-1216 677 l-30 16 -245 -136z m752 -514 c277 -154 711 -396 964 -536 253 -141
498 -277 545 -303 l85 -47 0 -1237 0 -1237 -350 -193 c-192 -106 -662 -364
-1043 -574 l-693 -382 -312 171 c-172 94 -386 212 -477 261 -91 50 -203 112
-250 138 -47 26 -188 104 -315 173 -126 69 -349 191 -495 271 l-265 145 -3
1235 -2 1236 42 21 c24 12 142 77 263 144 121 67 434 240 695 385 477 264 514
284 845 468 99 55 198 109 220 120 22 12 40 21 41 22 0 0 227 -126 505 -281z"/>
<path d="M4913 6822 c-34 -21 -104 -59 -157 -87 -53 -27 -96 -52 -96 -55 0 -3
107 -63 238 -134 206 -113 988 -544 1276 -704 67 -37 94 -57 85 -62 -8 -4
-138 -76 -289 -160 -151 -83 -419 -231 -594 -328 l-320 -176 -75 40 c-42 22
-321 176 -621 341 -814 449 -840 463 -853 463 -7 0 -45 -18 -84 -40 l-73 -41
0 -1017 0 -1017 149 -79 c82 -43 153 -78 158 -77 4 0 10 410 13 909 l5 909
515 -284 c283 -156 543 -298 577 -316 l63 -32 0 -916 c0 -721 3 -919 13 -927
6 -5 59 -35 117 -66 l106 -55 529 290 c676 371 1005 553 1078 596 l57 35 -2
1036 c-3 1025 -3 1037 -23 1047 -11 5 -56 30 -100 54 -44 25 -423 235 -843
468 -420 233 -768 423 -775 422 -7 0 -40 -17 -74 -37z m1501 -2065 l-1 -742
-199 -111 c-110 -60 -341 -188 -514 -284 -173 -95 -366 -201 -427 -236 l-113
-62 0 742 0 742 378 209 c207 115 487 270 622 346 135 75 247 138 250 138 3 1
4 -333 4 -742z"/>
</g>
</svg>
