<?xml version="1.0" encoding="UTF-8"?>
<svg  width="752pt" height="752pt" version="1.1" viewBox="0 0 752 752" xmlns="http://www.w3.org/2000/svg">
 <path d="m417.68 415.76c-23.543-26.426-26.914-155.14-32.246-220.63-2.2422-27.562-4.8398-32.234-9.4336-32.234-4.6016 0-7.1992 4.7656-9.4492 32.43-5.332 65.531-8.7188 194.04-32.23 220.44-41.082 46.109-124.07 26.492-124.07 48.574 0 18.777 77.77 11.422 124.07 51.906 41.676 36.438 32.953 72.875 41.676 72.875s0-36.438 41.68-72.875c46.301-40.48 124.07-33.129 124.07-51.906 0-22.082-82.988-2.4648-124.07-48.574z"/>
</svg>
